<?xml version="1.0" standalone="no"?>
<!DOCTYPE svg PUBLIC "-//W3C//DTD SVG 20010904//EN"
 "http://www.w3.org/TR/2001/REC-SVG-20010904/DTD/svg10.dtd">
<svg version="1.0" xmlns="http://www.w3.org/2000/svg"
 width="996.000000pt" height="1280.000000pt" viewBox="0 0 996.000000 1280.000000"
 preserveAspectRatio="xMidYMid meet">
<metadata>
Created by potrace 1.15, written by Peter Selinger 2001-2017
</metadata>
<g transform="translate(0.000000,1280.000000) scale(0.100000,-0.100000)"
fill="#ff9800" stroke="none">
<path d="M3608 12755 c-3 -17 -57 -403 -119 -858 l-114 -828 -109 -132 c-60
-73 -123 -146 -140 -163 -247 -242 -456 -697 -555 -1204 -98 -505 -96 -1082 4
-1585 154 -768 529 -1329 957 -1430 80 -19 215 -19 295 0 399 94 758 597 927
1295 55 232 114 660 90 660 -5 0 -9 123 -9 273 0 266 -11 425 -41 615 -77 483
-252 978 -438 1231 -96 133 -260 278 -384 340 -40 20 -49 32 -89 118 l-46 96
-58 421 c-32 232 -81 588 -109 791 -28 204 -52 374 -54 380 -1 5 -5 -4 -8 -20z"/>
<path d="M6346 11959 c-76 -387 -157 -797 -180 -911 l-41 -207 -92 -61 c-219
-146 -402 -402 -497 -695 -174 -542 -252 -973 -263 -1457 -3 -137 -10 -248
-14 -248 -13 0 -11 -47 6 -195 95 -823 420 -1476 844 -1699 195 -102 427 -102
621 0 407 214 729 833 834 1604 55 401 45 895 -25 1290 -91 517 -290 970 -543
1239 -39 42 -116 130 -171 196 l-100 120 -117 850 c-65 467 -119 856 -120 864
-2 8 -66 -302 -142 -690z"/>
<path d="M435 9456 c-193 -87 -351 -454 -411 -956 -24 -200 -24 -602 0 -795
32 -253 83 -467 147 -620 27 -61 29 -76 23 -135 -8 -84 11 -341 37 -495 158
-948 809 -1890 1458 -2111 147 -50 250 -62 368 -42 238 41 411 197 516 466
196 507 67 1333 -317 2032 -400 727 -1019 1187 -1476 1097 -41 -9 -78 -12 -82
-9 -13 13 -87 243 -117 364 -97 390 -123 825 -67 1146 l12 72 -30 0 c-17 -1
-44 -7 -61 -14z"/>
<path d="M9446 9393 c56 -317 32 -738 -62 -1123 -20 -80 -55 -199 -78 -265
-35 -100 -45 -120 -61 -119 -11 1 -63 7 -115 13 -153 19 -297 -12 -485 -105
-332 -165 -675 -524 -925 -969 -298 -531 -451 -1128 -419 -1630 19 -291 99
-526 233 -685 493 -585 1515 62 2002 1267 148 368 223 718 228 1078 3 167 5
184 28 240 105 245 161 598 161 1005 0 462 -74 853 -210 1112 -80 151 -197
258 -284 258 l-26 0 13 -77z"/>
<path d="M4805 5683 c-228 -19 -461 -99 -670 -229 -75 -46 -153 -130 -258
-277 -148 -206 -253 -408 -436 -834 -66 -155 -137 -306 -158 -335 -185 -263
-481 -493 -718 -558 -434 -119 -855 -347 -1088 -589 -111 -117 -168 -197 -261
-373 -132 -249 -188 -484 -187 -782 0 -283 59 -531 181 -771 148 -289 408
-553 679 -690 100 -50 366 -157 441 -177 90 -24 274 -28 365 -9 77 17 307 90
408 130 109 44 154 68 297 158 435 276 743 407 1105 470 154 26 482 24 640 -6
428 -79 751 -217 1269 -544 245 -155 363 -208 551 -249 100 -22 370 -16 494
11 308 66 554 188 767 383 448 407 630 1021 489 1644 -72 318 -288 668 -538
873 -155 126 -194 145 -454 220 -317 92 -428 137 -586 238 -171 109 -336 271
-450 443 -90 135 -101 160 -312 695 -150 382 -185 461 -228 520 -317 440 -826
682 -1342 638z"/>
</g>
</svg>
