<svg width="661" height="110" viewBox="0 0 661 110" fill="none" xmlns="http://www.w3.org/2000/svg">
<g style="mix-blend-mode:darken">
<path d="M108.32 62.192L98.432 86H93.536L122.432 16.88H125.12L154.112 86H148.928L139.04 62.192H108.32ZM123.488 24.56C123.424 24.624 123.296 25.008 123.104 25.712C122.208 28.464 121.344 30.8 120.512 32.72L109.952 58.256H137.408L126.848 32.816C124.608 27.952 123.488 25.2 123.488 24.56ZM196.072 82.736H193.48L175.336 38.672C174.568 36.944 173.8 34.928 173.032 32.624C173.032 32.688 172.968 33.04 172.84 33.68C172.776 34.32 172.68 35.184 172.552 36.272C172.424 37.296 172.296 38.16 172.168 38.864L164.968 86H160.648L170.824 23.312H173.416L192.808 69.296C194.344 73.136 195.112 75.152 195.112 75.344C195.56 74 196.424 72.016 197.704 69.392L219.304 23.312H221.896L231.4 86H226.792L219.976 38.672C219.528 35.536 219.304 33.456 219.304 32.432L216.52 38.768L196.072 82.736ZM247.799 23.984C252.343 23.6 257.015 23.408 261.815 23.408C266.615 23.408 270.711 24.56 274.103 26.864C277.559 29.168 279.287 32.528 279.287 36.944C279.287 40.272 278.391 43.344 276.599 46.16C274.807 48.976 272.631 51.12 270.071 52.592C274.231 53.808 277.687 55.984 280.439 59.12C283.191 62.256 284.567 65.808 284.567 69.776C284.567 75.28 282.807 79.44 279.287 82.256C275.831 85.072 270.935 86.48 264.599 86.48C258.263 86.48 252.663 86.256 247.799 85.808V23.984ZM256.535 54.512L252.215 54.608V82.16C254.967 82.416 259.415 82.544 265.559 82.544C269.719 82.544 273.143 81.392 275.831 79.088C278.583 76.72 279.959 73.776 279.959 70.256C279.959 66.672 278.583 63.568 275.831 60.944C273.143 58.256 269.623 56.368 265.271 55.28C263.031 54.768 260.119 54.512 256.535 54.512ZM274.967 36.848C274.967 33.712 273.655 31.312 271.031 29.648C268.407 27.92 265.271 27.056 261.623 27.056C257.975 27.056 254.839 27.152 252.215 27.344V50.864C257.783 50.864 262.231 51.024 265.559 51.344C268.055 50 270.231 48.048 272.087 45.488C274.007 42.864 274.967 39.984 274.967 36.848ZM302.833 86V23.696H331.921V27.536H307.249V50.192H329.521V53.936H307.249V81.968H332.881V86H302.833ZM350.551 86V23.984C356.055 23.536 360.727 23.312 364.567 23.312C370.455 23.312 375.319 24.848 379.159 27.92C382.999 30.928 384.919 35.248 384.919 40.88C384.919 44.656 383.831 48.144 381.655 51.344C379.479 54.544 377.015 57.136 374.263 59.12C381.879 69.232 386.583 75.28 388.375 77.264C392.023 81.04 395.991 83.184 400.279 83.696L400.183 86.672C396.599 86.608 393.687 86.096 391.447 85.136C389.207 84.112 386.967 82.416 384.727 80.048C382.551 77.68 377.719 71.312 370.231 60.944C365.047 60.944 359.959 60.784 354.967 60.464V86H350.551ZM367.831 57.296C370.327 57.296 373.015 55.632 375.895 52.304C378.775 48.976 380.215 45.104 380.215 40.688C380.215 36.272 378.711 32.912 375.703 30.608C372.695 28.304 368.791 27.152 363.991 27.152C361.431 27.152 358.423 27.28 354.967 27.536V56.816C359.575 57.136 363.863 57.296 367.831 57.296ZM444.703 86V17.36H479.743V21.392H449.311V46.64H477.151V50.576H449.311V86H444.703ZM522.853 86.96C513.957 86.96 506.501 83.856 500.485 77.648C494.469 71.44 491.461 63.856 491.461 54.896C491.461 45.872 494.469 38.256 500.485 32.048C506.501 25.84 513.957 22.736 522.853 22.736C531.749 22.736 539.205 25.84 545.221 32.048C551.237 38.256 554.245 45.872 554.245 54.896C554.245 63.856 551.237 71.44 545.221 77.648C539.205 83.856 531.749 86.96 522.853 86.96ZM522.853 26.672C515.173 26.672 508.773 29.392 503.653 34.832C498.597 40.272 496.069 46.96 496.069 54.896C496.069 62.768 498.597 69.424 503.653 74.864C508.773 80.24 515.173 82.928 522.853 82.928C530.597 82.928 536.997 80.24 542.053 74.864C547.109 69.424 549.637 62.768 549.637 54.896C549.637 46.96 547.109 40.272 542.053 34.832C536.997 29.392 530.597 26.672 522.853 26.672ZM564.03 23.696H569.406L586.014 50.672L603.39 23.696H608.19L588.222 54.224L608.286 86H603.006L585.15 57.392L566.526 86H561.63L582.942 53.744L564.03 23.696Z" fill="#FCAC21"/>
</g>
<g clip-path="url(#clip0_10_66)">
<path d="M28.9799 0.302344C28.9558 0.416562 28.5221 3.01 28.0241 6.06703L27.1084 11.6302L26.2329 12.517C25.751 13.0075 25.245 13.498 25.1084 13.6122C23.1245 15.2381 21.4458 18.2952 20.6506 21.7016C19.8634 25.0945 19.8795 28.9713 20.6827 32.3508C21.9197 37.5108 24.9317 41.28 28.3695 41.9586C29.012 42.0863 30.0964 42.0863 30.7389 41.9586C33.9438 41.327 36.8273 37.9475 38.1847 33.2578C38.6265 31.6991 39.1004 28.8234 38.9076 28.8234C38.8675 28.8234 38.8353 27.997 38.8353 26.9892C38.8353 25.202 38.747 24.1338 38.506 22.8572C37.8875 19.612 36.4819 16.2863 34.9879 14.5864C34.2169 13.6928 32.8996 12.7186 31.9036 12.302C31.5823 12.1677 31.51 12.087 31.1887 11.5092L30.8193 10.8642L30.3534 8.03563C30.0964 6.47688 29.7028 4.085 29.4779 2.72109C29.253 1.35047 29.0602 0.208281 29.0442 0.167969C29.0361 0.134375 29.004 0.194844 28.9799 0.302344Z" fill="#FF9800"/>
<path d="M50.9719 5.65047C50.3614 8.25063 49.7108 11.0053 49.5261 11.7713L49.1968 13.162L48.4578 13.5719C46.6988 14.5528 45.2289 16.2728 44.4659 18.2414C43.0683 21.883 42.4418 24.7788 42.3534 28.0306C42.3293 28.9511 42.2731 29.6969 42.241 29.6969C42.1365 29.6969 42.1526 30.0127 42.2892 31.007C43.0522 36.5366 45.6627 40.9239 49.0683 42.4222C50.6345 43.1075 52.498 43.1075 54.0562 42.4222C57.3253 40.9844 59.9116 36.8255 60.755 31.6453C61.1968 28.9511 61.1165 25.632 60.5542 22.9781C59.8233 19.5045 58.2249 16.4609 56.1928 14.6536C55.8795 14.3714 55.261 13.7802 54.8193 13.3367L54.0161 12.5305L53.0763 6.81953C52.5542 3.68187 52.1205 1.06828 52.1125 1.01453C52.0964 0.960781 51.5823 3.04359 50.9719 5.65047Z" fill="#FF9800"/>
<path d="M3.49397 22.4675C1.94377 23.052 0.674693 25.5178 0.192766 28.8906C-5.51343e-06 30.2344 -5.51343e-06 32.9353 0.192766 34.232C0.449794 35.9319 0.859432 37.3697 1.37349 38.3977C1.59036 38.8075 1.60642 38.9083 1.55823 39.3047C1.49397 39.8691 1.64658 41.5958 1.85542 42.6305C3.12449 48.9998 8.35341 55.3289 13.5663 56.8137C14.747 57.1497 15.5743 57.2303 16.5221 57.0959C18.4337 56.8205 19.8233 55.7723 20.6667 53.965C22.241 50.5586 21.2048 45.0089 18.1205 40.3125C14.9076 35.428 9.93574 32.3373 6.26505 32.942C5.93574 33.0025 5.63855 33.0227 5.60642 33.0025C5.502 32.9152 4.90762 31.3698 4.66666 30.5569C3.88754 27.9366 3.67871 25.0139 4.12851 22.8572L4.22489 22.3734H3.98393C3.84738 22.3802 3.63052 22.4205 3.49397 22.4675Z" fill="#FF9800"/>
<path d="M75.8715 22.8908C76.3213 25.0206 76.1285 27.8492 75.3735 30.4359C75.2128 30.9734 74.9317 31.773 74.747 32.2164C74.4659 32.8883 74.3855 33.0227 74.257 33.0159C74.1687 33.0092 73.751 32.9689 73.3333 32.9286C72.1044 32.8009 70.9478 33.0092 69.4377 33.6341C66.7711 34.7427 64.0161 37.1547 62.008 40.1445C59.6145 43.7122 58.3855 47.7233 58.6426 51.0961C58.7952 53.0513 59.4377 54.6302 60.514 55.6984C64.4739 59.6289 72.6827 55.2819 76.5944 47.1858C77.7831 44.7133 78.3855 42.3617 78.4257 39.943C78.4498 38.8209 78.4659 38.7067 78.6506 38.3305C79.494 36.6844 79.9438 34.3127 79.9438 31.5781C79.9438 28.4741 79.3494 25.847 78.257 24.1069C77.6144 23.0923 76.6747 22.3734 75.9759 22.3734H75.7671L75.8715 22.8908Z" fill="#FF9800"/>
<path d="M38.5944 47.8173C36.7631 47.945 34.8916 48.4825 33.2128 49.3559C32.6104 49.665 31.9839 50.2294 31.1406 51.217C29.9518 52.6011 29.1084 53.9583 27.6386 56.8205C27.1084 57.8619 26.5382 58.8764 26.3695 59.0712C24.8835 60.8383 22.506 62.3836 20.6024 62.8203C17.1165 63.6198 13.7349 65.1517 11.8635 66.7777C10.9719 67.5638 10.5141 68.1013 9.76707 69.2838C8.70683 70.9567 8.25703 72.5356 8.26506 74.5378C8.26506 76.4392 8.73895 78.1055 9.71887 79.718C10.9076 81.6597 12.996 83.4334 15.1727 84.3539C15.9759 84.6898 18.1124 85.4088 18.7149 85.5431C19.4377 85.7044 20.9157 85.7313 21.6466 85.6036C22.2651 85.4894 24.1124 84.9989 24.9237 84.7302C25.7992 84.4345 26.1606 84.2733 27.3092 83.6686C30.8032 81.8142 33.2771 80.9341 36.1847 80.5108C37.4217 80.3361 40.0562 80.3495 41.3253 80.5511C44.7631 81.0819 47.3574 82.0091 51.5181 84.2061C53.4859 85.2475 54.4337 85.6036 55.9438 85.8791C56.747 86.0269 58.9157 85.9866 59.9116 85.8052C62.3855 85.3617 64.3614 84.542 66.0723 83.2319C69.6707 80.4973 71.1325 76.372 70 72.1863C69.4217 70.0497 67.6867 67.6981 65.6787 66.3208C64.4337 65.4742 64.1205 65.3466 62.0321 64.8427C59.4859 64.2245 58.5944 63.9222 57.3253 63.2436C55.9518 62.5112 54.6265 61.4228 53.7108 60.2672C52.9879 59.3602 52.8996 59.1922 51.2048 55.5977C50 53.0311 49.7189 52.5003 49.3735 52.1039C46.8273 49.1477 42.739 47.5217 38.5944 47.8173Z" fill="#FF9800"/>
</g>
<defs>
<clipPath id="clip0_10_66">
<rect width="80" height="86" fill="white"/>
</clipPath>
</defs>
</svg>
